<svg width="148" height="40" viewBox="0 0 148 40" fill="none" xmlns="http://www.w3.org/2000/svg">
<path d="M37.5166 8.02787L33.4647 6.0019C33.352 5.94523 33.2807 5.8299 33.2807 5.7039V0.999983C33.2807 0.447326 32.8327 0 32.2807 0H28.2808C27.7288 0 27.2808 0.447993 27.2808 0.999983V2.64062C27.2808 2.76462 27.1501 2.84529 27.0395 2.78995L22.5169 0.528657C21.1089 -0.175331 19.4523 -0.175331 18.045 0.528657L3.0452 8.02853C1.35123 8.87518 0.28125 10.6065 0.28125 12.5005V35.0001C0.28125 37.7614 2.51988 40 5.28117 40H35.2807C38.042 40 40.2806 37.7614 40.2806 35.0001V12.4998C40.2806 10.6058 39.2106 8.87452 37.5166 8.02787ZM24.6715 33.5721C21.6836 33.5721 19.5923 32.5668 18.3969 30.8915C16.6043 32.6508 14.1717 33.5721 11.0557 33.5721C6.48848 33.5721 3.54386 30.5562 4.43985 25.5302L5.29317 20.5877C5.5065 19.457 4.9945 18.9957 4.26852 18.9957C3.62853 18.9957 3.37186 19.163 3.2012 19.247L4.56718 14.0111C5.5065 13.6758 6.70114 13.5504 8.19512 13.5504C11.8657 13.5504 13.4024 15.3517 12.6344 19.6237L11.7804 24.4823C11.3964 26.2836 12.1644 27.3302 13.6157 27.3302C14.9817 27.3302 15.9203 26.5342 16.2617 24.6916L18.2249 13.9271H25.3528L23.4749 24.4823C23.0909 26.3249 23.9015 27.3302 25.3528 27.3302C27.6148 27.3302 28.8528 24.9849 28.8528 20.2937C28.8528 18.7857 28.7674 16.9431 28.1275 13.9271H35.5113C36.1087 16.1471 36.2793 17.9064 36.2793 19.833C36.2793 28.5869 32.1821 33.5714 24.6695 33.5714L24.6715 33.5721Z" fill="#007367"/>
<path d="M49.4698 24.6921C49.5978 27.1214 51.1771 28.964 54.5064 28.964C57.3237 28.964 59.0737 28.2521 60.781 27.2887L59.5856 32.3147C58.049 33.1946 55.5737 33.6966 52.6284 33.6966C46.7812 33.6966 43.2812 30.388 43.2812 25.1521C43.2812 18.6182 48.2752 13.4663 55.3604 13.4663C60.1836 13.4663 62.7443 15.9376 62.7443 19.3722C62.7443 23.1835 59.0737 25.9901 53.9091 25.9901C52.0311 25.9901 50.3238 25.5714 49.4698 24.6915V24.6921ZM49.7258 22.5982C49.9818 22.6402 50.3231 22.6402 50.7078 22.6402C54.6771 22.6402 56.8117 21.5095 56.8117 19.9175C56.8117 18.9542 56.0864 18.3256 54.8484 18.3256C52.8424 18.3256 50.4518 19.9175 49.7265 22.5982H49.7258Z" fill="#007367"/>
<path d="M84.6821 27.2893C84.4688 28.4199 84.9381 28.9226 85.9201 28.9226C86.2614 28.9226 86.5601 28.8386 86.8587 28.6713L85.7061 32.9852C84.9808 33.3619 83.7001 33.5719 82.7181 33.5719C80.7122 33.5719 79.2182 32.8179 78.6635 31.2266C77.0416 32.7765 74.9503 33.6979 72.5603 33.6979C67.9077 33.6979 64.6211 30.0119 64.6211 24.6927C64.6211 18.0748 69.103 13.4675 74.7369 13.4675C77.3835 13.4675 79.6455 14.5562 80.9688 16.8181L81.9508 13.9282H87.1154L84.6828 27.2893H84.6821ZM79.3895 22.9334C79.3895 20.3787 77.6822 18.8288 75.4202 18.8288C72.603 18.8288 70.9383 21.2581 70.9383 24.106C70.9383 26.7026 72.5176 28.2946 74.9076 28.2946C77.8955 28.2946 79.3895 25.698 79.3895 22.9334Z" fill="#007367"/>
<path d="M90.273 25.5722L91.3403 19.625C91.511 18.5777 90.999 18.159 90.3157 18.159C89.8037 18.159 89.4623 18.3264 89.291 18.4103L90.4437 13.9284C91.1263 13.7191 92.151 13.5098 93.6876 13.5098C96.8889 13.5098 98.2549 15.2691 97.6142 18.7037L96.5042 24.7349C96.0776 27.2062 97.1015 28.4209 98.8515 28.4209C100.815 28.4209 102.351 27.0389 103.034 23.4363C103.546 20.5043 103.29 17.405 102.266 13.9284H108.37C109.352 17.363 109.651 20.379 109.053 23.6876C107.943 29.8868 104.016 33.6981 97.6995 33.6981C92.0656 33.6981 89.3763 30.6821 90.273 25.5722Z" fill="#007367"/>
<path d="M117.761 24.6921C117.889 27.1214 119.468 28.964 122.797 28.964C125.615 28.964 127.365 28.2521 129.072 27.2887L127.877 32.3147C126.34 33.1946 123.865 33.6966 120.919 33.6966C115.072 33.6966 111.572 30.388 111.572 25.1521C111.572 18.6182 116.566 13.4663 123.651 13.4663C128.475 13.4663 131.035 15.9376 131.035 19.3722C131.035 23.1835 127.365 25.9901 122.2 25.9901C120.322 25.9901 118.615 25.5714 117.761 24.6915L117.761 24.6921ZM118.017 22.5982C118.273 22.6402 118.614 22.6402 118.999 22.6402C122.968 22.6402 125.102 21.5095 125.102 19.9175C125.102 18.9542 124.377 18.3256 123.139 18.3256C121.133 18.3256 118.742 19.9175 118.017 22.5982Z" fill="#007367"/>
<path d="M147.212 13.551L145.931 19.2476C145.547 19.1636 145.206 19.1222 144.608 19.1222C142.175 19.1222 140.168 20.7555 139.358 23.8555L137.693 33.196H131.59L134.022 19.7929L134.577 13.971L140.168 13.5523L139.912 17.0709C141.065 14.977 143.412 13.469 145.973 13.469C146.57 13.469 146.698 13.469 147.211 13.553L147.212 13.551Z" fill="#007367"/>
</svg>
